/* XPM */
static char * monster_xpm[] = {
"48 48 556 2",
"  	c None",
". 	c #000000",
"+ 	c #0C0000",
"@ 	c #0B0000",
"# 	c #050000",
"$ 	c #030000",
"% 	c #0E0000",
"& 	c #1D0000",
"* 	c #280000",
"= 	c #2B0000",
"- 	c #270000",
"; 	c #1E0000",
"> 	c #130000",
", 	c #090000",
"' 	c #070000",
") 	c #020000",
"! 	c #150000",
"~ 	c #1C0000",
"{ 	c #170000",
"] 	c #0F0000",
"^ 	c #080000",
"/ 	c #010000",
"( 	c #060000",
"_ 	c #120000",
": 	c #100000",
"< 	c #310000",
"[ 	c #2A0000",
"} 	c #0D0000",
"| 	c #180000",
"1 	c #210000",
"2 	c #250000",
"3 	c #190000",
"4 	c #140000",
"5 	c #040000",
"6 	c #2D0000",
"7 	c #370000",
"8 	c #350000",
"9 	c #2C0000",
"0 	c #1F0000",
"a 	c #220000",
"b 	c #110000",
"c 	c #0A0000",
"d 	c #3D0000",
"e 	c #390000",
"f 	c #2E0000",
"g 	c #320000",
"h 	c #2F0000",
"i 	c #240000",
"j 	c #200000",
"k 	c #300000",
"l 	c #400000",
"m 	c #430000",
"n 	c #1B0000",
"o 	c #340000",
"p 	c #380000",
"q 	c #3C0000",
"r 	c #480000",
"s 	c #410000",
"t 	c #360000",
"u 	c #290000",
"v 	c #1A0000",
"w 	c #330000",
"x 	c #230000",
"y 	c #160000",
"z 	c #4F0000",
"A 	c #4D0000",
"B 	c #450000",
"C 	c #3A0000",
"D 	c #3E0000",
"E 	c #BDBDBD",
"F 	c #ABABAB",
"G 	c #490000",
"H 	c #420000",
"I 	c #3F0000",
"J 	c #9C9C9C",
"K 	c #B0B0B0",
"L 	c #B2B2B2",
"M 	c #9E9E9E",
"N 	c #B5B5B5",
"O 	c #B8B8B8",
"P 	c #A7A7A7",
"Q 	c #BABABA",
"R 	c #848484",
"S 	c #4E0000",
"T 	c #460000",
"U 	c #A5A5A5",
"V 	c #333333",
"W 	c #550000",
"X 	c #520000",
"Y 	c #3B0000",
"Z 	c #4B0000",
"` 	c #5B0000",
" .	c #4C0000",
"..	c #440000",
"+.	c #530000",
"@.	c #5F0000",
"#.	c #570000",
"$.	c #500000",
"%.	c #4A0000",
"&.	c #470000",
"*.	c #5C0000",
"=.	c #540000",
"-.	c #640000",
";.	c #5A0000",
">.	c #620000",
",.	c #690000",
"'.	c #580000",
").	c #560000",
"!.	c #510000",
"~.	c #680000",
"{.	c #6B0000",
"].	c #650000",
"^.	c #5E0000",
"/.	c #6E0000",
"(.	c #610000",
"_.	c #6C0000",
":.	c #720000",
"<.	c #670000",
"[.	c #600000",
"}.	c #8F8F8F",
"|.	c #730000",
"1.	c #5D0000",
"2.	c #6F0000",
"3.	c #780000",
"4.	c #770000",
"5.	c #700000",
"6.	c #630000",
"7.	c #A1A1A1",
"8.	c #790000",
"9.	c #740000",
"0.	c #660000",
"a.	c #7F0000",
"b.	c #840000",
"c.	c #7A0000",
"d.	c #890000",
"e.	c #760000",
"f.	c #870000",
"g.	c #9E0000",
"h.	c #980000",
"i.	c #810000",
"j.	c #750000",
"k.	c #1E1E1E",
"l.	c #A80000",
"m.	c #A20000",
"n.	c #880000",
"o.	c #7C0000",
"p.	c #8A0000",
"q.	c #B50000",
"r.	c #C40000",
"s.	c #AD0000",
"t.	c #C80000",
"u.	c #CB0000",
"v.	c #B80000",
"w.	c #7E0000",
"x.	c #930000",
"y.	c #C20000",
"z.	c #E40000",
"A.	c #DE0000",
"B.	c #BB0000",
"C.	c #920000",
"D.	c #E20000",
"E.	c #E60100",
"F.	c #E30000",
"G.	c #D50000",
"H.	c #BC0000",
"I.	c #9D0000",
"J.	c #850000",
"K.	c #7B0000",
"L.	c #8C0000",
"M.	c #CC0000",
"N.	c #F30400",
"O.	c #FA0B00",
"P.	c #EF0300",
"Q.	c #8C8C8C",
"R.	c #F20200",
"S.	c #F60500",
"T.	c #F70600",
"U.	c #F80600",
"V.	c #F10200",
"W.	c #D70000",
"X.	c #AB0000",
"Y.	c #D60000",
"Z.	c #FA0900",
"`.	c #FF1D00",
" +	c #FF1C00",
".+	c #FB0800",
"++	c #A3A3A3",
"@+	c #F90700",
"#+	c #FD0B00",
"$+	c #FD0F00",
"%+	c #FE1500",
"&+	c #FF1800",
"*+	c #FE0C00",
"=+	c #CD0000",
"-+	c #CE0000",
";+	c #E10000",
">+	c #FB0E00",
",+	c #FF2C00",
"'+	c #FF3700",
")+	c #FF2900",
"!+	c #FF0F00",
"~+	c #FF1400",
"{+	c #FE1800",
"]+	c #FF2000",
"^+	c #FF2B00",
"/+	c #F90800",
"(+	c #EE0000",
"_+	c #F00100",
":+	c #FD1100",
"<+	c #FF3500",
"[+	c #FF4C00",
"}+	c #FF4700",
"|+	c #646464",
"1+	c #969696",
"2+	c #FE1B00",
"3+	c #FF1F00",
"4+	c #FF2300",
"5+	c #FF3900",
"6+	c #FF4100",
"7+	c #FF2200",
"8+	c #FF0A00",
"9+	c #FF0900",
"0+	c #FF0B00",
"a+	c #FF3C00",
"b+	c #FF5C00",
"c+	c #FF6100",
"d+	c #FF2A00",
"e+	c #FF2D00",
"f+	c #FF4300",
"g+	c #FF5100",
"h+	c #FF1E00",
"i+	c #FF2600",
"j+	c #FF4400",
"k+	c #FF6900",
"l+	c #FF7500",
"m+	c #FF3800",
"n+	c #FF4000",
"o+	c #FF4E00",
"p+	c #FF5D00",
"q+	c #FF5200",
"r+	c #FF3200",
"s+	c #FF3300",
"t+	c #FF4F00",
"u+	c #FF7600",
"v+	c #FF8600",
"w+	c #FF5A00",
"x+	c #FF6B00",
"y+	c #FF6600",
"z+	c #FF4600",
"A+	c #FF6000",
"B+	c #FF8500",
"C+	c #FF9700",
"D+	c #FF8F00",
"E+	c #FF5B00",
"F+	c #FF6800",
"G+	c #FF7A00",
"H+	c #FF5800",
"I+	c #FF5900",
"J+	c #FF5E00",
"K+	c #FF9600",
"L+	c #FFA600",
"M+	c #FFA100",
"N+	c #FF7200",
"O+	c #FF5F00",
"P+	c #FF6A00",
"Q+	c #FF7900",
"R+	c #FF8C00",
"S+	c #FF8D00",
"T+	c #FF6C00",
"U+	c #FFA800",
"V+	c #FFB500",
"W+	c #FFB000",
"X+	c #FF8100",
"Y+	c #FF6E00",
"Z+	c #FF7100",
"`+	c #FF7C00",
" @	c #FFA000",
".@	c #FF7D00",
"+@	c #FF8000",
"@@	c #FF8E00",
"#@	c #FFA400",
"$@	c #FFBB00",
"%@	c #FFC200",
"&@	c #FFBD00",
"*@	c #FFB600",
"=@	c #FF9300",
"-@	c #FF8200",
";@	c #FF7F00",
">@	c #FFA500",
",@	c #FFB800",
"'@	c #FFB400",
")@	c #FF9100",
"!@	c #FF9900",
"~@	c #FFCA00",
"{@	c #FFCE00",
"]@	c #FFC900",
"^@	c #FFB900",
"/@	c #FF9E00",
"(@	c #FF9800",
"_@	c #FF9500",
":@	c #FFAD00",
"<@	c #FFBE00",
"[@	c #FFCF00",
"}@	c #FFC700",
"|@	c #FFA700",
"1@	c #FFB200",
"2@	c #FFD900",
"3@	c #FFD400",
"4@	c #FFCD00",
"5@	c #FFC300",
"6@	c #FFA900",
"7@	c #FFA300",
"8@	c #FFAC00",
"9@	c #FFB700",
"0@	c #FFC600",
"a@	c #FFD800",
"b@	c #FFE600",
"c@	c #FFD700",
"d@	c #FFBF00",
"e@	c #FFE100",
"f@	c #FFE500",
"g@	c #FFDF00",
"h@	c #FFC100",
"i@	c #FFAE00",
"j@	c #FFB300",
"k@	c #FFB100",
"l@	c #FFD000",
"m@	c #FFEF00",
"n@	c #FFF705",
"o@	c #FFE700",
"p@	c #FFC400",
"q@	c #FFE000",
"r@	c #FFEA00",
"s@	c #FFF000",
"t@	c #FFF203",
"u@	c #FFE200",
"v@	c #FFBC00",
"w@	c #FFC000",
"x@	c #FFF403",
"y@	c #FFFC12",
"z@	c #FFFE1D",
"A@	c #FFF300",
"B@	c #FFD500",
"C@	c #FFDB00",
"D@	c #FFE900",
"E@	c #FFF201",
"F@	c #FFF707",
"G@	c #FFFA0C",
"H@	c #FFF807",
"I@	c #FFF500",
"J@	c #FFED00",
"K@	c #FFDC00",
"L@	c #FFC800",
"M@	c #FFC500",
"N@	c #FFD100",
"O@	c #FFFD1E",
"P@	c #FFFF36",
"Q@	c #FFFF3B",
"R@	c #FFF90A",
"S@	c #FFF907",
"T@	c #FFFC13",
"U@	c #FFFE21",
"V@	c #FFFD20",
"W@	c #FFFD16",
"X@	c #FFFB0D",
"Y@	c #FFF806",
"Z@	c #FFF302",
"`@	c #FFEC00",
" #	c #FFE400",
".#	c #FFDD00",
"+#	c #FFD600",
"@#	c #FFD300",
"##	c #FFFB0C",
"$#	c #FFFE26",
"%#	c #FFFF45",
"&#	c #FFFF59",
"*#	c #FFFF54",
"=#	c #FFFD19",
"-#	c #FFF600",
";#	c #FFFF23",
">#	c #FFFF31",
",#	c #FFFE3D",
"'#	c #FFFF3A",
")#	c #FFFE30",
"!#	c #FFFF24",
"~#	c #FFFD1A",
"{#	c #FFFA0A",
"]#	c #FFF603",
"^#	c #FFD200",
"/#	c #FFFC15",
"(#	c #FFF805",
"_#	c #FFF101",
":#	c #FFDE00",
"<#	c #FFE800",
"[#	c #FFEF01",
"}#	c #FFF606",
"|#	c #FFFC14",
"1#	c #FFFF2D",
"2#	c #FFFF4C",
"3#	c #FFFF67",
"4#	c #FFFF74",
"5#	c #FFFF69",
"6#	c #FFFE2C",
"7#	c #FFF700",
"8#	c #FFFF14",
"9#	c #FFFF49",
"0#	c #FFFF53",
"a#	c #FFFF5B",
"b#	c #FFFF56",
"c#	c #FFFF4D",
"d#	c #FFFF43",
"e#	c #FFFF34",
"f#	c #FFFF2C",
"g#	c #FFFD11",
"h#	c #FFF708",
"i#	c #FFF002",
"j#	c #FFFF6A",
"k#	c #FFFF4E",
"l#	c #FFFD18",
"m#	c #FFFE1B",
"n#	c #FFFF35",
"o#	c #FFFF52",
"p#	c #FFFF70",
"q#	c #FFFF84",
"r#	c #FFFF89",
"s#	c #FFFF78",
"t#	c #FFFF41",
"u#	c #FFFF6D",
"v#	c #FFFF73",
"w#	c #FFFF76",
"x#	c #FFFF6B",
"y#	c #FFFF63",
"z#	c #FFFF5E",
"A#	c #FFFF58",
"B#	c #FFFF32",
"C#	c #FFFB11",
"D#	c #FFFA0B",
"E#	c #FFFB0B",
"F#	c #FFFD12",
"G#	c #FFFF25",
"H#	c #FFFF7B",
"I#	c #FFFF98",
"J#	c #FFFFA5",
"K#	c #FFFFA2",
"L#	c #FFFF97",
"M#	c #FFFF82",
"N#	c #FFFF2B",
"O#	c #FFF501",
"P#	c #FFF808",
"Q#	c #FFFE2A",
"R#	c #FFFF77",
"S#	c #FFFF8F",
"T#	c #FFFF9C",
"U#	c #FFFF9A",
"V#	c #FFFF86",
"W#	c #FFFF57",
"X#	c #FFFF64",
"Y#	c #FFFF79",
"Z#	c #FFFF8B",
"`#	c #FFFF90",
" $	c #FFFF91",
".$	c #FFFF8D",
"+$	c #FFFF88",
"@$	c #FFFF83",
"#$	c #FFFF7F",
"$$	c #FFFF80",
"%$	c #FFFF68",
"&$	c #FFFF39",
"*$	c #FFFF44",
"=$	c #FFFF93",
"-$	c #FFFFAA",
";$	c #FFFFB6",
">$	c #FFFFB5",
",$	c #FFFF99",
"'$	c #FFFF81",
")$	c #FFFF30",
"!$	c #FFFF21",
"~$	c #FFFF1E",
"{$	c #FFFFA9",
"]$	c #FFFFB0",
"^$	c #FFFFA8",
"/$	c #FFFF92",
"($	c #FFFF72",
"_$	c #FFFFA7",
":$	c #FFFFAB",
"<$	c #FFFFA4",
"[$	c #FFFFA0",
"}$	c #FFFF9E",
"|$	c #FFFF9F",
"1$	c #FFFFA1",
"2$	c #FFFFA3",
"3$	c #FFFF94",
"4$	c #FFFF85",
"5$	c #FFFF7A",
"6$	c #FFFF87",
"7$	c #FFFF96",
"8$	c #FFFFBC",
"9$	c #FFFFC7",
"0$	c #FFFFBF",
"a$	c #FFFFB1",
"b$	c #FFFF9D",
"c$	c #FFFF5A",
"d$	c #FFFF5F",
"e$	c #FFFF66",
"f$	c #FFFFC0",
"g$	c #FFFFC1",
"h$	c #FFFF8A",
"i$	c #FFFFB7",
"j$	c #FFFFC2",
"k$	c #FFFFC4",
"l$	c #FFFFC5",
"m$	c #FFFFC3",
"n$	c #FFFFBD",
"o$	c #FFFFAC",
"p$	c #FFFFAE",
"q$	c #FFFFCE",
"r$	c #FFFFD7",
"s$	c #FFFFD8",
"t$	c #FFFFD4",
"u$	c #FFFFCB",
"v$	c #FFFFBE",
"w$	c #FFFFAF",
"x$	c #FFFFB8",
"y$	c #FFFFCF",
"z$	c #FFFFD0",
"A$	c #FFFFB9",
"B$	c #FFFFCA",
"C$	c #FFFFDB",
"D$	c #FFFFDC",
"E$	c #FFFFDD",
"F$	c #FFFFDA",
"G$	c #FFFFD9",
"H$	c #FFFFD2",
"I$	c #FFFFCD",
"J$	c #FFFFC9",
"K$	c #FFFFC8",
"L$	c #FFFFE2",
"M$	c #FFFFE7",
"N$	c #FFFFE8",
"O$	c #FFFFDF",
"P$	c #FFFFE3",
"Q$	c #FFFFE0",
"R$	c #FFFFD5",
"S$	c #FFFFEB",
"T$	c #FFFFEE",
"U$	c #FFFFEF",
"V$	c #FFFFF0",
"W$	c #FFFFEC",
"X$	c #FFFFF1",
"Y$	c #FFFFF3",
"Z$	c #FFFFF2",
"`$	c #FFFFE9",
" %	c #FFFFE6",
".%	c #FFFFEA",
"+%	c #FFFFED",
"@%	c #FFFFFF",
". . . . . . . . . . . . . . . . . . . . . . . . . . . . . . . . . . . . . . . . . . . . . . . . ",
". + @ # . . . . . . . . . . . . . . . $ % & * = - ; > , ' $ . . . . . . . ) # + ! & ~ { ] ^ / . ",
"( _ : ^ $ . . . . . . . . . . . . . . ( ! - < < [ ; > } @ ' / . . . . / $ ' : | 1 2 2 1 3 ] ' # ",
"+ | 4 + ' $ / / / ) $ $ ) . . . . . 5 % ~ 6 7 8 9 0 4 : ] @ 5 . . . / $ ^ : | a [ 9 [ 2 ; 4 } @ ",
"_ ; 3 b + ^ ( ( ' ^ c c , # $ ) $ # @ { 2 7 d e f 1 { 4 > : ^ ) . . ) ' ] { 1 = g < h [ 1 3 > _ ",
"| i ; { b % } } } ] b b ] @ ^ ^ , } > j k l m d g 2 n | | ! } ( $ $ ' } ! ; [ o p 7 o f 2 ; 3 | ",
"; = i ~ { 4 > 4 ! { | | ! b ] ] : > ~ [ q r r s t u 0 & & v > + , c } > ~ - w q d d e g u x 0 ; ",
"i < = x ; n v n ~ ; 0 ; ~ | y y { n i 8 r z A B C 6 i a x 0 3 > : b 4 n i k C m m m D t 6 * 2 i ",
"[ p g [ 2 a 1 a E E E E E E E F E E E E E E E E E E E E E E E E E E E E E E E E r G H e g f = = ",
"< I C g 9 u * * J K K K K K L M N N O O P Q E E E E Q P O O N N L L K K K K K R z S B d 7 o g < ",
"7 T H e w k h h J K K K K K L L N N O U V P E E E E P V U O N N L L K K K K K J W X G s d Y p 7 ",
"d S Z s Y 7 8 8 J K K K K K L L N N O U . V F E E F V . U O N N L L K K K K K J ` W  .B ..s D d ",
"..W +.Z m D q Y J K K K K K L L N N O U . . V F F V . . U O N N L L K K K K K J @.#.$. .%.&...m ",
"%.*.` =. .T m s J K K K K K L L N N O U . . . V V . . . U O N N L L K K K K K J -.;.W X $.A %.%.",
"$.>.-.*.W z %.r J K K K K K L L N N U V . . . . . . . . V U N N L L K K K K K J ,.@.` '.).=.!.$.",
").~.{.].^.'.X z J K K K K K L L N N U . . . . . . . . . . U N N L L K K K K K J /.-.(.@.*.;.#.).",
"*._.:./.<.[.;.#.J K K J J K L L N N U . . V . . . . V . . }.N N L L K K K K K J |.{.<.].>.[.1.*.",
">.2.3.4.5.,.6.^.J K K J K K L L N 7.V . . P . . . . P . . V 7.N L L K K K J J R 8.9./.{.,.0.-.6.",
"~.:.a.b.c.|._.0.J K J J K K L L N 7.. . . P V . . V P . . . 7.N L L K K K K K R d.a.e.:.2._.,.~.",
"2.9.f.g.h.i.j./.R J J K K K L L N 7.. . k.P F . . F P V . . 7.N L L K K K K K J l.m.n.o.e.|.5.2.",
"j.3.p.q.r.s.d.3.J K K K K K L L 7.V . . P Q F V V F Q P . . V 7.L L K K K K K J t.u.v.g.p.o.4.j.",
"o.w.x.y.z.A.B.C.J K K K K K L L 7.. . . P Q E F F E Q P . . . 7.L L K K K K K J D.E.F.G.H.I.J.K.",
"p.L.m.M.N.O.P.M.Q.K K K K K L L 7.. . V P Q E E E E Q P V . . 7.L L K K K K K Q.R.S.T.U.V.W.l.p.",
"X.X.q.Y.Z.`. +.+Q.K K K K K L M V . . U Q Q E E E E Q Q U . . V M L K K K K K ++@+#+$+%+&+*+Y.X.",
"=+=+-+;+>+,+'+)+Q.K K K K K L M . . . U Q Q E E E E Q Q U . . . M L K K K K K ++!+~+{+]+,+^+/+=+",
"(+(+(+_+:+<+[+}+|+++K K K K L M . . V U Q Q E E E E Q Q U V . . M L K K K K ++1+2+3+4+^+5+6+7+(+",
"8+8+9+0+&+a+b+c+1+++K K K K M V . . U O Q Q E E E E Q Q O U . . V M K K K K ++1+d+^+e+<+f+g+a+8+",
"h+h+h+3+i+j+k+l+. 1+++K K K M . . . U O Q Q E E E E Q Q O U . . . M K K K ++1+. a+'+m+n+o+p+q+h+",
"r+r+r+s+5+t+u+v+. 1+++K K K M . . V U O Q Q E E E E Q Q O U V . . M K K K ++1+. [+j+f+[+w+x+y+r+",
"z+z+z+}+[+A+B+C+D+. 1+++K J V . . 7.O O Q Q E E E E Q Q O O 7.. . V J K ++1+. c+E+g+g+w+F+G+G+z+",
"H+H+I+I+J+u+K+L+M+. 1+++K J . . . 7.O O Q Q E E E E Q Q O O 7.. . . J K ++1+. N+k+O+A+P+Q+R+S+H+",
"P+P+P+T+l+S+U+V+W+U+. 1+++J . . V 7.O O Q Q E E E E Q Q O O 7.V . . J ++1+. B+X+l+Y+Z+`+S+M+ @P+",
"`+.@.@+@@@#@$@%@&@*@. 1+++. . . . . U O Q Q E E E E Q Q O U . . . . . Q.1+. =@@@-@;@v+=@>@,@'@`+",
"@@D+)@!@U+$@~@{@]@%@^@. 1+++L L N N O O Q Q E E E E Q Q O O N N L L ++1+. /@/@(@)@_@/@:@<@[@}@@@",
" @ @|@1@%@[@2@2@3@4@5@V+. 1+++L N N O O Q Q E E E E Q Q O O N N K ++1+. 6@6@|@7@#@8@9@0@a@b@c@M+",
"1@'@d@~@a@e@b@f@g@a@{@h@i@. 1+++++N O O Q Q E E E E P Q O O N ++++1+. j@j@1@k@j@^@5@l@g@m@n@o@1@",
"p@]@3@q@r@s@t@s@r@u@2@4@&@8@. 1+1+++++O Q Q E E E F Q Q O ++++1+1+. d@&@v@v@w@0@{@a@b@x@y@z@A@5@",
"B@C@D@E@F@G@G@H@I@J@b@K@[@w@k@. . 1+1+++++Q E E E F Q ++++1+1+. . 4@L@M@0@~@N@a@e@J@H@O@P@Q@R@B@",
"f@m@S@T@O@U@V@W@X@Y@Z@`@u@B@L@<@^@. . 1+1+++E E E F ++1+1+. .  #.#+#[@{@@#2@q@D@A@##$#%#&#*#=#b@",
"-###;#>#Q@,#'#)#!#~#y@{#]#`@e@a@^#l@3@. . 1+++++Q.Q.1+. . /#(#_#o@:#a@2@e@<#[#}#|#1#2#3#4#5#6#7#",
"8#1#9#0#&#a#b#c#d#Q@e#f#U@g#h#i#r@o@<#m@n@. . . . . . j#k#>#l#F@[#<# #D@_#]#G@m#n#o#p#q#r#s#t#8#",
"Q@*#u#v#w#w#v#x#y#z#a#A#o#%#B#O@C#D#E#F#G#k#H#I#J#K#L#M#3#9#N#|#(#I@O#P#C#~#Q#t#a#R#S#T#U#V#W#Q@",
"X#Y#Z#`# $ $.$+$@$#$#$$$#$R#%$0#d#'#&$*$W#4#=$-$;$>$-$,$'$X#9#)$!$~$G#)$&$d#*#j#M#I#{$]$^$/$($X#",
"r#U#_$-$:$-$_$<$[$}$|$1$2$}$3$4$s#($($5$6$7$-$8$9$9$0$a$b$+$v#y#c$c$d$e$j#4#M#=$J#>$f$g$>$2$ $h$",
":$i$j$k$l$m$g$0$n$8$n$0$g$n$>$o$J#K#2$_$p$i$j$q$r$s$t$u$v$w$1$L#/$ $3$7$I#[$-$x$l$y$t$z$l$A$]$:$",
"B$t$C$D$E$D$C$F$G$G$C$E$D$G$H$I$J$K$J$I$H$r$D$L$M$N$M$L$D$H$J$j$v$n$n$v$g$9$y$s$O$P$P$Q$G$R$y$B$",
"S$T$U$U$U$U$U$U$U$V$V$V$V$U$T$S$S$S$S$W$U$T$X$X$Y$Y$Y$Z$V$T$W$`$M$ % % %M$.%+%U$X$X$X$U$T$T$+%S$",
"@%@%@%@%@%@%@%@%@%@%@%@%@%@%@%@%@%@%@%@%@%@%@%@%@%@%@%@%@%@%@%@%@%@%@%@%@%@%@%@%@%@%@%@%@%@%@%@%"};
